<?xml version="1.0" encoding="UTF-8" standalone="no"?>
<svg
   width="80"
   height="80"
   viewBox="0 0 80 80"
   fill="none"
   version="1.1"
   id="svg1"
   sodipodi:docname="easy.svg"
   inkscape:version="1.4.4 (dcaf3e7d9e, 2026-05-05)"
   xmlns:inkscape="http://www.inkscape.org/namespaces/inkscape"
   xmlns:sodipodi="http://sodipodi.sourceforge.net/DTD/sodipodi-0.dtd"
   xmlns="http://www.w3.org/2000/svg"
   xmlns:svg="http://www.w3.org/2000/svg">
  <defs
     id="defs1" />
  <sodipodi:namedview
     id="namedview1"
     pagecolor="#ffffff"
     bordercolor="#666666"
     borderopacity="1.0"
     inkscape:showpageshadow="2"
     inkscape:pageopacity="0.0"
     inkscape:pagecheckerboard="0"
     inkscape:deskcolor="#d1d1d1"
     inkscape:zoom="10.3375"
     inkscape:cx="40.048368"
     inkscape:cy="40"
     inkscape:window-width="1920"
     inkscape:window-height="1043"
     inkscape:window-x="0"
     inkscape:window-y="0"
     inkscape:window-maximized="1"
     inkscape:current-layer="svg1" />
  <path
     d="M32.5972 9.92129L27.3611 11.8766C26.9444 12.0291 26.6667 12.4312 26.6667 12.875C26.6667 13.3188 26.9444 13.7209 27.3611 13.8734L32.5972 15.8287L34.5556 21.0566C34.7083 21.4727 35.1111 21.75 35.5556 21.75C36 21.75 36.4028 21.4727 36.5556 21.0566L38.5139 15.8287L43.75 13.8734C44.1667 13.7209 44.4444 13.3188 44.4444 12.875C44.4444 12.4312 44.1667 12.0291 43.75 11.8766L38.5139 9.92129L36.5556 4.69336C36.4028 4.27734 36 4 35.5556 4C35.1111 4 34.7083 4.27734 34.5556 4.69336L32.5972 9.92129ZM6.40278 58.8309C3.80556 61.424 3.80556 65.6396 6.40278 68.2467L11.2083 73.0447C13.8056 75.6379 18.0278 75.6379 20.6389 73.0447L73.5972 20.1553C76.1945 17.5621 76.1945 13.3465 73.5972 10.7395L68.7917 5.95527C66.1944 3.36211 61.9722 3.36211 59.3611 5.95527L6.40278 58.8309ZM67.3056 15.4543L52.7222 30.0148L49.4861 26.7838L64.0694 12.2232L67.3056 15.4543ZM1.04167 20.2523C0.416667 20.4881 0 21.0844 0 21.75C0 22.4156 0.416667 23.0119 1.04167 23.2477L8.88889 26.1875L11.8333 34.0225C12.0694 34.6465 12.6667 35.0625 13.3333 35.0625C14 35.0625 14.5972 34.6465 14.8333 34.0225L17.7778 26.1875L25.625 23.2477C26.25 23.0119 26.6667 22.4156 26.6667 21.75C26.6667 21.0844 26.25 20.4881 25.625 20.2523L17.7778 17.3125L14.8333 9.47754C14.5972 8.85352 14 8.4375 13.3333 8.4375C12.6667 8.4375 12.0694 8.85352 11.8333 9.47754L8.88889 17.3125L1.04167 20.2523ZM49.9306 55.7523C49.3056 55.9881 48.8889 56.5844 48.8889 57.25C48.8889 57.9156 49.3056 58.5119 49.9306 58.7477L57.7778 61.6875L60.7222 69.5225C60.9583 70.1465 61.5556 70.5625 62.2222 70.5625C62.8889 70.5625 63.4861 70.1465 63.7222 69.5225L66.6667 61.6875L74.5139 58.7477C75.1389 58.5119 75.5556 57.9156 75.5556 57.25C75.5556 56.5844 75.1389 55.9881 74.5139 55.7523L66.6667 52.8125L63.7222 44.9775C63.4861 44.3535 62.8889 43.9375 62.2222 43.9375C61.5556 43.9375 60.9583 44.3535 60.7222 44.9775L57.7778 52.8125L49.9306 55.7523Z"
     fill="#4B5563"
     id="path1"
     style="fill:#0e7490;fill-opacity:1" />
</svg>
