<svg width="428" height="54" viewBox="0 0 428 54" fill="none" xmlns="http://www.w3.org/2000/svg">
<g clip-path="url(#clip0_12790_6486)">
<path d="M142.36 28.9001C142.36 23.6401 141.12 19.4801 138.68 16.5201C137.417 15.0172 135.824 13.8257 134.025 13.0383C132.227 12.2509 130.271 11.8888 128.31 11.9801C126.27 11.9015 124.238 12.2841 122.367 13.0996C120.495 13.9151 118.831 15.1424 117.5 16.6901C114.9 19.8147 113.544 23.7881 113.69 27.8501C113.69 32.4501 114.87 36.1801 117.19 38.9501C119.74 41.9501 123.49 43.5001 128.31 43.5001C131.643 43.6497 134.922 42.6193 137.57 40.5901C139.726 38.6932 141.289 36.2139 142.07 33.4501L142.36 32.5701H136.92L136.78 33.1001C136.378 34.9065 135.306 36.4932 133.78 37.5401C132.162 38.6257 130.247 39.1814 128.3 39.1301C126.981 39.212 125.661 38.9945 124.439 38.494C123.216 37.9935 122.123 37.223 121.24 36.2401C119.699 34.3672 118.861 32.0152 118.87 29.5901H142.35L142.36 28.9001ZM128.31 16.3401C129.563 16.2689 130.815 16.4934 131.965 16.9954C133.115 17.4975 134.13 18.263 134.93 19.2301C136.34 21.0062 137.118 23.2022 137.14 25.4701H118.97C119.303 23.1891 120.258 21.0438 121.73 19.2701C122.534 18.3166 123.544 17.5576 124.684 17.0501C125.823 16.5427 127.063 16.2999 128.31 16.3401Z" fill="#0E7490"/>
<path d="M156.93 17.0899H163.63V12.1599H156.56V8.8499C156.56 3.6499 151.47 3.6499 151.47 3.6499V12.1299H146.58V17.0599H151.5V31.6399C151.432 33.2477 151.708 34.8514 152.308 36.3445C152.908 37.8376 153.819 39.186 154.98 40.2999C156.145 41.3749 157.51 42.2099 158.998 42.7572C160.485 43.3046 162.066 43.5535 163.65 43.4899V38.6599C162.596 38.7285 161.541 38.5416 160.575 38.115C159.609 37.6885 158.76 37.0349 158.1 36.2099C157.069 34.8496 156.535 33.1762 156.59 31.4699V17.0899H156.93Z" fill="#0E7490"/>
<path d="M96.2298 16.85C97.2837 16.7823 98.3384 16.9696 99.3045 17.3961C100.271 17.8226 101.12 18.4757 101.78 19.3C102.813 20.6596 103.346 22.3335 103.29 24.04V38.29C103.29 43.49 108.38 43.49 108.38 43.49V23.85C108.442 22.2589 108.172 20.6723 107.587 19.1915C107.001 17.7107 106.113 16.3683 104.98 15.25C103.807 14.1591 102.431 13.3111 100.929 12.7551C99.427 12.199 97.8299 11.9458 96.2298 12.01C94.6465 11.9452 93.0661 12.1946 91.5797 12.7439C90.0934 13.2931 88.7305 14.1313 87.5698 15.21C86.4046 16.3173 85.4902 17.6613 84.8882 19.1517C84.2862 20.6421 84.0105 22.2442 84.0798 23.85V43.49H89.1698V24C89.1137 22.2904 89.6468 20.6134 90.6798 19.25C91.3456 18.4354 92.1971 17.7924 93.1628 17.3748C94.1285 16.9572 95.1802 16.7772 96.2298 16.85Z" fill="#0E7490"/>
<path d="M191.19 15.2199C190.017 14.129 188.641 13.281 187.139 12.7249C185.637 12.1688 184.04 11.9156 182.44 11.9799C179.948 11.9051 177.492 12.581 175.39 13.9199V2.3999H170.3V32.5599H175.39V23.9999C175.329 22.2896 175.862 20.611 176.9 19.2499C177.603 18.4795 178.46 17.8642 179.415 17.4432C180.369 17.0222 181.401 16.8048 182.445 16.8048C183.488 16.8048 184.52 17.0222 185.475 17.4432C186.43 17.8642 187.286 18.4795 187.99 19.2499C189.025 20.6121 189.558 22.2899 189.5 23.9999V38.2999C189.5 43.4899 194.6 43.4899 194.6 43.4899V23.8499C194.667 22.2529 194.398 20.6595 193.811 19.1729C193.223 17.6864 192.331 16.3396 191.19 15.2199Z" fill="#0E7490"/>
<path d="M228.12 17.9303C227.674 16.8973 226.989 15.9855 226.12 15.2703C225.188 14.5542 224.12 14.0369 222.98 13.7503C221.673 13.4208 220.328 13.2595 218.98 13.2703C217.244 13.1946 215.512 13.4912 213.9 14.1403C212.847 14.5911 211.91 15.2749 211.16 16.1403C210.616 16.7685 210.226 17.5149 210.02 18.3203C209.894 18.8085 209.814 19.3073 209.78 19.8103C209.701 21.047 210.028 22.2757 210.71 23.3103C211.354 24.1469 212.211 24.796 213.19 25.1903C214.325 25.6487 215.492 26.0263 216.68 26.3203L221.07 27.4603C222.26 27.7803 223.45 28.1003 224.62 28.4603C225.718 28.7734 226.765 29.2414 227.73 29.8503C228.644 30.4265 229.42 31.1984 230 32.1103C230.615 33.2036 230.913 34.4469 230.86 35.7003C230.897 37.0808 230.551 38.4444 229.86 39.6403C229.211 40.6985 228.333 41.5973 227.29 42.2703C226.192 42.9634 224.98 43.4576 223.71 43.7303C222.398 44.0283 221.056 44.1792 219.71 44.1803C215.61 44.1803 212.517 43.2836 210.43 41.4903C208.343 39.697 207.297 36.8703 207.29 33.0103H208.5C208.5 36.4703 209.463 39.0103 211.39 40.6303C213.317 42.2503 216.093 43.0536 219.72 43.0403C220.877 43.0392 222.031 42.9118 223.16 42.6603C224.286 42.4192 225.364 41.9934 226.35 41.4003C227.297 40.8429 228.104 40.0768 228.71 39.1603C229.353 38.1676 229.677 37.0023 229.64 35.8203C229.695 34.6518 229.369 33.497 228.71 32.5303C228.074 31.6772 227.258 30.974 226.32 30.4703C225.255 29.9035 224.123 29.4734 222.95 29.1903L219.07 28.1903C217.59 27.8303 216.3 27.5003 215.19 27.1903C214.165 26.9051 213.162 26.5442 212.19 26.1103C211.028 25.6551 210.043 24.8382 209.38 23.7803C208.732 22.5501 208.425 21.1691 208.49 19.7803C208.505 18.8787 208.685 17.9875 209.02 17.1503C209.415 16.1872 210.032 15.3307 210.82 14.6503C211.762 13.8266 212.856 13.1947 214.04 12.7903C215.602 12.2812 217.238 12.0411 218.88 12.0803C222.3 12.0803 225.01 12.8503 227 14.4103C228.99 15.9703 230 18.4103 230 21.8703H228.8C228.845 20.5243 228.614 19.1833 228.12 17.9303Z" fill="#6B7280"/>
<path d="M242.6 34.1499C243.006 35.8107 243.726 37.3788 244.72 38.7699C245.68 40.0935 246.951 41.1614 248.42 41.8799C250.16 42.6847 252.064 43.0717 253.98 43.0099C256.858 43.1118 259.684 42.2183 261.98 40.4799C264.248 38.5527 265.682 35.8216 265.98 32.8599H267.17C267.046 34.4589 266.607 36.0177 265.879 37.4471C265.152 38.8764 264.15 40.1483 262.93 41.1899C260.437 43.2148 257.301 44.2791 254.09 44.1899C251.99 44.2839 249.896 43.8938 247.97 43.0499C246.326 42.2925 244.899 41.1336 243.82 39.6799C242.704 38.134 241.893 36.3896 241.43 34.5399C240.905 32.4611 240.646 30.324 240.66 28.1799C240.624 25.8604 241.007 23.5536 241.79 21.3699C242.471 19.5317 243.489 17.8362 244.79 16.3699C245.959 15.053 247.392 13.9974 248.996 13.2719C250.6 12.5465 252.339 12.1676 254.1 12.1599C256.244 12.1061 258.369 12.5764 260.29 13.5299C261.945 14.3824 263.384 15.5997 264.5 17.0899C265.615 18.6584 266.426 20.4223 266.89 22.2899C267.386 24.28 267.595 26.3307 267.51 28.3799H241.85C241.874 30.3259 242.126 32.2624 242.6 34.1499ZM265.6 21.8399C265.121 20.2246 264.341 18.7147 263.3 17.3899C262.28 16.1159 260.984 15.0901 259.51 14.3899C257.865 13.6201 256.065 13.2403 254.25 13.2799C252.637 13.2802 251.042 13.6209 249.57 14.2799C248.108 14.9202 246.802 15.8685 245.74 17.0599C244.599 18.3477 243.701 19.8317 243.09 21.4399C242.381 23.2962 241.976 25.2547 241.89 27.2399H266.38C266.379 25.4122 266.103 23.5951 265.56 21.8499L265.6 21.8399Z" fill="#6B7280"/>
<path d="M301.75 37.6702C301.11 39.0022 300.205 40.1897 299.09 41.1602C297.973 42.1386 296.675 42.8893 295.27 43.3702C293.724 43.9063 292.096 44.1703 290.46 44.1502C288.452 44.1883 286.461 43.7676 284.64 42.9202C282.994 42.1394 281.537 41.0099 280.37 39.6101C279.192 38.1685 278.299 36.5157 277.74 34.7402C277.137 32.8182 276.837 30.8143 276.85 28.8002C276.841 26.6506 277.13 24.5101 277.71 22.4402C278.249 20.5188 279.14 18.7147 280.34 17.1202C281.538 15.5755 283.07 14.3211 284.82 13.4502C286.803 12.5004 288.982 12.0311 291.18 12.0802C292.579 12.0756 293.97 12.295 295.3 12.7302C296.583 13.1517 297.779 13.8022 298.83 14.6502C299.889 15.5146 300.769 16.5779 301.42 17.7802C302.146 19.1223 302.605 20.5929 302.77 22.1102H301.57C301.385 20.7355 300.941 19.4086 300.26 18.2002C299.66 17.147 298.87 16.2145 297.93 15.4502C297.007 14.716 295.956 14.1599 294.83 13.8102C293.648 13.4463 292.417 13.2642 291.18 13.2702C289.033 13.2036 286.905 13.6891 285 14.6802C283.377 15.5546 281.986 16.8022 280.94 18.3202C279.909 19.8404 279.16 21.5342 278.73 23.3202C278.278 25.1052 278.046 26.9388 278.04 28.7802C278.033 30.6044 278.307 32.4188 278.85 34.1602C279.352 35.8021 280.152 37.3376 281.21 38.6902C282.25 40.0212 283.576 41.1012 285.09 41.8502C286.776 42.6605 288.63 43.0581 290.5 43.0102C291.945 43.025 293.382 42.7951 294.75 42.3302C296.028 41.8862 297.211 41.2079 298.24 40.3302C299.302 39.4207 300.169 38.3062 300.789 37.0535C301.409 35.8008 301.77 34.4357 301.85 33.0401H303.05C302.907 34.6506 302.466 36.2204 301.75 37.6702Z" fill="#6B7280"/>
<path d="M336.21 43.49V35.91H336.09C335.58 38.2507 334.285 40.3467 332.42 41.85C330.312 43.4735 327.698 44.2988 325.04 44.18C323.552 44.1964 322.071 43.9631 320.66 43.49C319.364 43.0577 318.179 42.344 317.19 41.4C316.191 40.4252 315.417 39.2445 314.92 37.94C314.36 36.4204 314.089 34.8094 314.12 33.19V12.79H315.31V32.98C315.269 34.5397 315.534 36.0924 316.09 37.55C316.536 38.7065 317.237 39.7475 318.141 40.5958C319.045 41.4441 320.128 42.0779 321.31 42.45C322.516 42.831 323.775 43.02 325.04 43.01C326.71 43.0623 328.368 42.7197 329.88 42.01C331.24 41.3432 332.435 40.3835 333.38 39.2C334.34 37.9689 335.059 36.5677 335.5 35.07C335.978 33.4808 336.217 31.8295 336.21 30.17V12.79H337.41V43.49H336.21Z" fill="#6B7280"/>
<path d="M349.95 43.4899V12.7899H351.14V20.3799H351.26C351.538 19.2343 351.982 18.1358 352.58 17.1199C353.192 16.0859 354.005 15.1848 354.97 14.4699C356.033 13.6718 357.228 13.066 358.5 12.6799C360.059 12.2156 361.685 12.0129 363.31 12.0799V13.2699C361.443 13.1091 359.565 13.4078 357.84 14.1399C356.371 14.7882 355.073 15.771 354.05 17.0099C353.037 18.2496 352.285 19.6817 351.84 21.2199C351.361 22.8056 351.118 24.4533 351.12 26.1099V43.4899H349.95Z" fill="#6B7280"/>
<path d="M371.39 6.8501V0.850098H372.58V6.8501H371.39ZM371.39 43.4601V12.7901H372.58V43.4901L371.39 43.4601Z" fill="#6B7280"/>
<path d="M388.41 37.5201C388.372 38.4332 388.504 39.3454 388.8 40.2101C389.01 40.762 389.354 41.2532 389.8 41.6401C390.178 41.9504 390.635 42.148 391.12 42.2101C391.594 42.27 392.072 42.3 392.55 42.3001C393.15 42.3001 393.69 42.3001 394.16 42.3001C394.499 42.2999 394.836 42.2494 395.16 42.1501V43.3401L394.11 43.4601C393.78 43.4601 393.11 43.5201 392.23 43.5201C390.939 43.5537 389.678 43.1206 388.68 42.3001C387.68 41.4801 387.22 39.9801 387.22 37.7901V13.9901H381.6V12.7901H387.22V3.12012H388.41V12.7901H395.34V13.9901H388.41V37.5201Z" fill="#6B7280"/>
<path d="M427.23 12.7903L413.07 49.7003C412.762 50.5953 412.275 51.4186 411.64 52.1203C411.12 52.6748 410.49 53.1142 409.79 53.4103C409.073 53.691 408.318 53.8597 407.55 53.9103C406.73 53.9703 405.87 54.0003 404.95 54.0003V52.8503C405.95 52.8503 406.87 52.8503 407.61 52.7603C408.271 52.7196 408.918 52.5568 409.52 52.2803C410.083 52.0015 410.573 51.5938 410.95 51.0903C411.444 50.4028 411.838 49.6486 412.12 48.8503L414.33 43.1703L401.55 12.7703H402.8L414.99 41.8503L425.99 12.7603L427.23 12.7903Z" fill="#6B7280"/>
<path d="M24.6 53.5501L0.5 29.4501L24.6 5.3501L48.7 29.4501L24.6 53.5501ZM3.68 29.4501L24.6 50.3801L45.5 29.4501L24.6 8.5301L3.68 29.4501Z" fill="#0E7490"/>
</g>
<defs>
<clipPath id="clip0_12790_6486">
<rect width="426.73" height="53.15" fill="white" transform="translate(0.5 0.850098)"/>
</clipPath>
</defs>
</svg>
